<svg width="36" height="36" viewBox="0 0 36 36" fill="none" xmlns="http://www.w3.org/2000/svg">
<circle cx="18.1067" cy="18" r="17.8933" fill="#7D8FA9"/>
<g clip-path="url(#clip0_9_1309)">
<path d="M27.8667 11.9476C27.1408 12.2661 26.3673 12.4771 25.5609 12.5796C26.3905 12.0843 27.0237 11.3059 27.3213 10.3677C26.5479 10.8289 25.6939 11.1546 24.7837 11.3364C24.0493 10.5544 23.0025 10.0701 21.8606 10.0701C19.6451 10.0701 17.8615 11.8683 17.8615 14.0729C17.8615 14.3901 17.8883 14.6951 17.9542 14.9854C14.6272 14.8232 11.6834 13.2286 9.70576 10.7996C9.3605 11.3986 9.15798 12.0843 9.15798 12.8224C9.15798 14.2083 9.87168 15.4368 10.9355 16.1481C10.2926 16.1359 9.66184 15.9492 9.12748 15.6552C9.12748 15.6674 9.12748 15.6833 9.12748 15.6991C9.12748 17.6438 10.5146 19.2591 12.3336 19.6312C12.0079 19.7203 11.6529 19.763 11.2844 19.763C11.0282 19.763 10.7696 19.7483 10.5268 19.6946C11.0453 21.2794 12.5166 22.4445 14.2661 22.4823C12.9046 23.5474 11.1759 24.1891 9.30438 24.1891C8.9762 24.1891 8.66144 24.1745 8.34668 24.1342C10.1193 25.2774 12.2202 25.9301 14.4857 25.9301C21.8496 25.9301 25.8756 19.8301 25.8756 14.5426C25.8756 14.3657 25.8695 14.1949 25.861 14.0253C26.6552 13.4617 27.3226 12.7577 27.8667 11.9476Z" fill="white"/>
</g>
<defs>
<clipPath id="clip0_9_1309">
<rect width="19.52" height="19.52" fill="white" transform="translate(8.34668 8.23999)"/>
</clipPath>
</defs>
</svg>
