<svg width="36" height="36" viewBox="0 0 36 36" fill="none" xmlns="http://www.w3.org/2000/svg">
<circle cx="17.8933" cy="18" r="17.8933" fill="#7D8FA9"/>
<path d="M16.0196 19.0149C15.9611 19.0149 14.6728 19.0149 14.0872 19.0149C13.7748 19.0149 13.6772 18.8978 13.6772 18.605C13.6772 17.8242 13.6772 17.0239 13.6772 16.2431C13.6772 15.9308 13.7944 15.8332 14.0872 15.8332H16.0196C16.0196 15.7746 16.0196 14.6425 16.0196 14.1154C16.0196 13.3346 16.1563 12.5929 16.5467 11.9097C16.9566 11.2069 17.5422 10.7385 18.284 10.4652C18.772 10.2895 19.26 10.2114 19.787 10.2114H21.7C21.9732 10.2114 22.0904 10.3285 22.0904 10.6018V12.8271C22.0904 13.1004 21.9732 13.2175 21.7 13.2175C21.1729 13.2175 20.6459 13.2175 20.1188 13.237C19.5918 13.237 19.3185 13.4908 19.3185 14.0373C19.299 14.6229 19.3185 15.189 19.3185 15.7941H21.5828C21.8952 15.7941 22.0123 15.9113 22.0123 16.2236V18.5855C22.0123 18.8978 21.9147 18.9954 21.5828 18.9954C20.8801 18.9954 19.3771 18.9954 19.3185 18.9954V25.3589C19.3185 25.6908 19.2209 25.8079 18.8696 25.8079C18.0497 25.8079 17.2494 25.8079 16.4296 25.8079C16.1368 25.8079 16.0196 25.6908 16.0196 25.398C16.0196 23.3484 16.0196 19.0735 16.0196 19.0149Z" fill="white"/>
</svg>
