<svg width="36" height="36" viewBox="0 0 36 36" fill="none" xmlns="http://www.w3.org/2000/svg">
<circle cx="18.0357" cy="18" r="17.8933" fill="#7D8FA9"/>
<g clip-path="url(#clip0_9_1302)">
<path d="M27.7941 13.989C27.7483 12.95 27.5803 12.2357 27.3396 11.6168C27.0913 10.9598 26.7093 10.3716 26.2088 9.88257C25.7198 9.38598 25.1278 9.0001 24.4784 8.75568C23.8558 8.515 23.1453 8.34698 22.1063 8.30117C21.0595 8.25148 20.7272 8.23999 18.0723 8.23999C15.4174 8.23999 15.0851 8.25148 14.0423 8.29729C13.0033 8.3431 12.289 8.51127 11.6701 8.75181C11.013 9.0001 10.4248 9.3821 9.9358 9.88257C9.4392 10.3716 9.05347 10.9637 8.80891 11.613C8.56822 12.2357 8.4002 12.9462 8.35439 13.9852C8.3047 15.0319 8.29321 15.3642 8.29321 18.0191C8.29321 20.674 8.3047 21.0063 8.35051 22.0491C8.39632 23.0881 8.56449 23.8025 8.80518 24.4214C9.05347 25.0784 9.4392 25.6666 9.9358 26.1556C10.4248 26.6522 11.0169 27.0381 11.6663 27.2825C12.289 27.5232 12.9994 27.6912 14.0385 27.737C15.0813 27.783 15.4137 27.7943 18.0686 27.7943C20.7235 27.7943 21.0558 27.783 22.0986 27.737C23.1376 27.6912 23.8519 27.5232 24.4707 27.2825C25.7849 26.7744 26.8239 25.7354 27.332 24.4214C27.5725 23.7987 27.7407 23.0881 27.7865 22.0491C27.8323 21.0063 27.8438 20.674 27.8438 18.0191C27.8438 15.3642 27.8399 15.0319 27.7941 13.989ZM26.0332 21.9727C25.9911 22.9277 25.8307 23.4434 25.697 23.7872C25.3684 24.6391 24.6923 25.3152 23.8405 25.6438C23.4967 25.7775 22.9772 25.9379 22.026 25.9798C20.9946 26.0258 20.6853 26.0371 18.0762 26.0371C15.4671 26.0371 15.1539 26.0258 14.1263 25.9798C13.1713 25.9379 12.6556 25.7775 12.3118 25.6438C11.8879 25.4871 11.502 25.2388 11.1888 24.9141C10.8641 24.597 10.6158 24.215 10.4591 23.7911C10.3254 23.4473 10.165 22.9277 10.1231 21.9766C10.0771 20.9452 10.0658 20.6358 10.0658 18.0267C10.0658 15.4176 10.0771 15.1044 10.1231 14.0769C10.165 13.1219 10.3254 12.6062 10.4591 12.2624C10.6158 11.8384 10.8641 11.4526 11.1927 11.1393C11.5096 10.8146 11.8916 10.5663 12.3157 10.4098C12.6595 10.2761 13.179 10.1157 14.1301 10.0736C15.1615 10.0278 15.471 10.0163 18.0799 10.0163C20.6929 10.0163 21.0022 10.0278 22.0299 10.0736C22.9848 10.1157 23.5005 10.2761 23.8443 10.4098C24.2683 10.5663 24.6541 10.8146 24.9673 11.1393C25.292 11.4564 25.5403 11.8384 25.697 12.2624C25.8307 12.6062 25.9911 13.1257 26.0332 14.0769C26.079 15.1083 26.0905 15.4176 26.0905 18.0267C26.0905 20.6358 26.079 20.9414 26.0332 21.9727Z" fill="white"/>
<path d="M18.0726 12.9961C15.2994 12.9961 13.0493 15.246 13.0493 18.0193C13.0493 20.7927 15.2994 23.0426 18.0726 23.0426C20.8459 23.0426 23.0958 20.7927 23.0958 18.0193C23.0958 15.246 20.8459 12.9961 18.0726 12.9961ZM18.0726 21.2778C16.2735 21.2778 14.8141 19.8186 14.8141 18.0193C14.8141 16.2201 16.2735 14.7609 18.0726 14.7609C19.8718 14.7609 21.331 16.2201 21.331 18.0193C21.331 19.8186 19.8718 21.2778 18.0726 21.2778Z" fill="white"/>
<path d="M24.4671 12.7972C24.4671 13.4448 23.942 13.9699 23.2943 13.9699C22.6467 13.9699 22.1216 13.4448 22.1216 12.7972C22.1216 12.1495 22.6467 11.6245 23.2943 11.6245C23.942 11.6245 24.4671 12.1495 24.4671 12.7972Z" fill="white"/>
</g>
<defs>
<clipPath id="clip0_9_1302">
<rect width="19.52" height="19.5544" fill="white" transform="translate(8.27563 8.23999)"/>
</clipPath>
</defs>
</svg>
