<svg width="36" height="36" viewBox="0 0 36 36" fill="none" xmlns="http://www.w3.org/2000/svg">
<circle cx="17.9644" cy="18" r="17.8933" fill="#7D8FA9"/>
<path d="M25.7727 25.8085V20.0892C25.7727 17.2783 25.1676 15.1311 21.8883 15.1311C20.3071 15.1311 19.2531 15.99 18.8236 16.8098H18.7846V15.3849H15.6809V25.8085H18.9212V20.6357C18.9212 19.2693 19.175 17.9615 20.8537 17.9615C22.5129 17.9615 22.5324 19.5036 22.5324 20.7138V25.789H25.7727V25.8085Z" fill="white"/>
<path d="M10.4102 15.3845H13.6505V25.8082H10.4102V15.3845Z" fill="white"/>
<path d="M12.0307 10.1924C10.9961 10.1924 10.1567 11.0317 10.1567 12.0663C10.1567 13.1009 10.9961 13.9597 12.0307 13.9597C13.0652 13.9597 13.9046 13.1009 13.9046 12.0663C13.9046 11.0317 13.0652 10.1924 12.0307 10.1924Z" fill="white"/>
</svg>
