<svg width="55" height="22" viewBox="0 0 55 22" fill="none" xmlns="http://www.w3.org/2000/svg">
<g clip-path="url(#clip0_9_1255)">
<path d="M20.1873 18.9439L22.9245 3.93384H27.2015L24.5497 18.9439H20.1873Z" fill="#3C58BF"/>
<path d="M20.1873 18.9439L23.6944 3.93384H27.2015L24.5497 18.9439H20.1873Z" fill="#293688"/>
<path d="M40.0325 4.10022C39.1771 3.76666 37.8085 3.43311 36.0977 3.43311C31.8208 3.43311 28.7414 5.51783 28.7414 8.51984C28.7414 10.7714 30.8799 11.9388 32.5906 12.6893C34.3014 13.4398 34.8147 13.9401 34.8147 14.6073C34.8147 15.6079 33.446 16.1083 32.2485 16.1083C30.5377 16.1083 29.5968 15.8581 28.1426 15.2744L27.5438 15.0242L26.9451 18.4432C27.9715 18.8601 29.8534 19.277 31.8208 19.277C36.3544 19.277 39.3482 17.1923 39.3482 14.0235C39.3482 12.2724 38.2362 10.9381 35.67 9.85407C34.1303 9.10357 33.1894 8.68662 33.1894 7.93612C33.1894 7.26901 33.9593 6.60189 35.67 6.60189C37.1242 6.60189 38.1507 6.85206 38.9205 7.18562L39.3482 7.3524L40.0325 4.10022Z" fill="#3C58BF"/>
<path d="M40.0325 4.10022C39.1771 3.76666 37.8085 3.43311 36.0977 3.43311C31.8208 3.43311 29.5112 5.51783 29.5112 8.51984C29.5112 10.7714 30.8799 11.9388 32.5906 12.6893C34.3014 13.4398 34.8147 13.9401 34.8147 14.6073C34.8147 15.6079 33.446 16.1083 32.2485 16.1083C30.5377 16.1083 29.5968 15.8581 28.1426 15.2744L27.5438 15.0242L26.9451 18.4432C27.9715 18.8601 29.8534 19.277 31.8208 19.277C36.3544 19.277 39.3482 17.1923 39.3482 14.0235C39.3482 12.2724 38.2362 10.9381 35.67 9.85407C34.1303 9.10357 33.1894 8.68662 33.1894 7.93612C33.1894 7.26901 33.9593 6.60189 35.67 6.60189C37.1242 6.60189 38.1507 6.85206 38.9205 7.18562L39.3482 7.3524L40.0325 4.10022Z" fill="#293688"/>
<path d="M47.389 3.93359C46.3625 3.93359 45.5926 4.01698 45.1649 5.01765L38.7495 18.9436H43.3686L44.224 16.442H49.6985L50.2117 18.9436H54.3176L50.725 3.93359H47.389ZM45.4216 13.9403C45.6782 13.1898 47.1323 9.52067 47.1323 9.52067C47.1323 9.52067 47.4745 8.60339 47.7311 8.01966L47.9877 9.43728C47.9877 9.43728 48.8431 13.1898 49.0142 14.0237H45.4216V13.9403Z" fill="#3C58BF"/>
<path d="M48.4154 3.93359C47.389 3.93359 46.6191 4.01698 46.1914 5.01765L38.7495 18.9436H43.3686L44.224 16.442H49.6985L50.2117 18.9436H54.3176L50.725 3.93359H48.4154ZM45.4216 13.9403C45.7637 13.1064 47.1323 9.52067 47.1323 9.52067C47.1323 9.52067 47.4745 8.60339 47.7311 8.01966L47.9877 9.43728C47.9877 9.43728 48.8431 13.1898 49.0142 14.0237H45.4216V13.9403Z" fill="#293688"/>
<path d="M12.3178 14.4412L11.8901 12.2731C11.1202 9.77143 8.63959 7.01959 5.90234 5.68536L9.7516 19.0276H14.3707L21.2994 4.01758H16.6803L12.3178 14.4412Z" fill="#3C58BF"/>
<path d="M12.3178 14.4412L11.8901 12.2731C11.1202 9.77143 8.63959 7.01959 5.90234 5.68536L9.7516 19.0276H14.3707L21.2994 4.01758H17.5357L12.3178 14.4412Z" fill="#293688"/>
<path d="M0.427734 3.93384L1.19759 4.10062C6.67208 5.35145 10.4358 8.52024 11.89 12.2728L10.3503 5.18468C10.0936 4.18401 9.32379 3.93384 8.38286 3.93384H0.427734Z" fill="#FFBC00"/>
<path d="M0.427734 3.93384C5.90223 5.18468 10.4358 8.43685 11.89 12.1894L10.4358 6.26873C10.1792 5.26806 9.32379 4.68434 8.38286 4.68434L0.427734 3.93384Z" fill="#F7981D"/>
<path d="M0.427734 3.93384C5.90223 5.18468 10.4358 8.43685 11.89 12.1894L10.8635 8.93719C10.6069 7.93652 10.2647 6.93585 9.06718 6.5189L0.427734 3.93384Z" fill="#ED7C00"/>
<path d="M16.5946 13.9405L13.6863 11.1052L12.3177 14.274L11.9755 12.1893C11.2057 9.68763 8.72504 6.93579 5.98779 5.60156L9.83705 18.9438H14.4562L16.5946 13.9405ZM24.5498 18.9438L20.8716 15.2747L20.1873 18.9438H24.5498ZM34.3867 13.7737C34.7289 14.1073 34.9 14.3574 34.8144 14.691C34.8144 15.6917 33.4458 16.192 32.2483 16.192C30.5375 16.192 29.5966 15.9418 28.1424 15.3581L27.5436 15.1079L26.9449 18.5269C27.9713 18.9438 29.8532 19.3608 31.8206 19.3608C34.5578 19.3608 36.7818 18.6103 38.0649 17.276L34.3867 13.7737ZM39.348 18.9438H43.3683L44.2237 16.4422H49.6982L50.2115 18.9438H54.3173L52.8632 12.8564L47.7308 8.01985L47.9874 9.35407C47.9874 9.35407 48.8428 13.1066 49.0139 13.9405H45.4213C45.7634 13.1066 47.1321 9.52085 47.1321 9.52085C47.1321 9.52085 47.4742 8.60357 47.7308 8.01985" fill="#051244"/>
</g>
<defs>
<clipPath id="clip0_9_1255">
<rect width="54.745" height="21.0558" fill="white" transform="translate(0 0.910889)"/>
</clipPath>
</defs>
</svg>
